<svg xmlns="http://www.w3.org/2000/svg" style="display: none">
  <symbol id="flag-ru" viewBox="0 0 30 20">
    <path d="M30 0H0V20H30V0Z" fill="#0052B4" />
    <path d="M30 0H0V6.66649H30V0Z" fill="#F0F0F0" />
    <path d="M30 13.333H0V19.9994H30V13.333Z" fill="#D80027" />
  </symbol>
  <symbol id="flag-en" viewBox="0 0 30 20">
    <path d="M30 0H0V20H30V0Z" fill="#F0F0F0" />
    <path d="M30 2.49976H0V4.99951H30V2.49976Z" fill="#D80027" />
    <path d="M30 7.49988H0V9.99964H30V7.49988Z" fill="#D80027" />
    <path d="M30 12.4994H0V14.9991H30V12.4994Z" fill="#D80027" />
    <path d="M30 17.4996H0V19.9994H30V17.4996Z" fill="#D80027" />
    <path d="M15 0H0V10.7692H15V0Z" fill="#2E52B2" />
  </symbol>
  <symbol viewBox="0 0 36 36" fill="currentColor" xmlns="http://www.w3.org/2000/svg">
    <path d="M0 17.6777C0 17.6777 7.18215 14.2388 10.7105 10.7105C14.2388 7.18216 17.6777 4.11272e-06 17.6777 4.11272e-06C17.6777 4.11272e-06 21.1166 7.18216 24.6449 10.7105C28.1732 14.2388 35.3553 17.6777 35.3553 17.6777C35.3553 17.6777 28.1732 21.1166 24.6449 24.6449C21.1166 28.1732 17.6777 35.3553 17.6777 35.3553C17.6777 35.3553 14.2388 28.1732 10.7105 24.6449C7.18215 21.1166 0 17.6777 0 17.6777Z" />
  </symbol>
</svg>