<svg xmlns="http://www.w3.org/2000/svg" style="display: none">
  <symbol id="flag-ru" viewBox="0 0 30 20">
    <path d="M30 0H0V20H30V0Z" fill="#0052B4" />
    <path d="M30 0H0V6.66649H30V0Z" fill="#F0F0F0" />
    <path d="M30 13.333H0V19.9994H30V13.333Z" fill="#D80027" />
  </symbol>
  <symbol id="flag-en" viewBox="0 0 30 20">
    <path d="M30 0H0V20H30V0Z" fill="#F0F0F0" />
    <path d="M30 2.49976H0V4.99951H30V2.49976Z" fill="#D80027" />
    <path d="M30 7.49988H0V9.99964H30V7.49988Z" fill="#D80027" />
    <path d="M30 12.4994H0V14.9991H30V12.4994Z" fill="#D80027" />
    <path d="M30 17.4996H0V19.9994H30V17.4996Z" fill="#D80027" />
    <path d="M15 0H0V10.7692H15V0Z" fill="#2E52B2" />
  </symbol>
  <symbol id="lang-js" viewBox="0 0 16 16" fill="none" xmlns="http://www.w3.org/2000/svg">
    <path d="M2 2H14V14H2V2ZM5.15333 12.0267C5.42 12.5933 5.94667 13.06 6.84667 13.06C7.84667 13.06 8.53333 12.5267 8.53333 11.36V7.50667H7.4V11.3333C7.4 11.9067 7.16667 12.0533 6.8 12.0533C6.41333 12.0533 6.25333 11.7867 6.07333 11.4733L5.15333 12.0267ZM9.14 11.9067C9.47333 12.56 10.1467 13.06 11.2 13.06C12.2667 13.06 13.0667 12.5067 13.0667 11.4867C13.0667 10.5467 12.5267 10.1267 11.5667 9.71333L11.2867 9.59333C10.8 9.38667 10.5933 9.24667 10.5933 8.91333C10.5933 8.64 10.8 8.42667 11.1333 8.42667C11.4533 8.42667 11.6667 8.56667 11.86 8.91333L12.7333 8.33333C12.3667 7.69333 11.8467 7.44667 11.1333 7.44667C10.1267 7.44667 9.48 8.08667 9.48 8.93333C9.48 9.85333 10.02 10.2867 10.8333 10.6333L11.1133 10.7533C11.6333 10.98 11.94 11.12 11.94 11.5067C11.94 11.8267 11.64 12.06 11.1733 12.06C10.62 12.06 10.3 11.7733 10.06 11.3733L9.14 11.9067Z" fill="#FFCB6B"/>
  </symbol>
  <symbol id="lang-ts" viewBox="0 0 16 16" fill="none" xmlns="http://www.w3.org/2000/svg">
    <path fill-rule="evenodd" clip-rule="evenodd" d="M1.47205 1.47198V14.528H14.528V1.47198H1.47205ZM11.3927 7.81343V7.81361C11.5179 7.814 11.6602 7.82045 11.7672 7.83205C12.203 7.8792 12.5424 8.06722 12.8311 8.42136C12.9749 8.59777 13.0241 8.67497 13.0136 8.70799C13.0069 8.72929 12.9082 8.79995 12.5945 9.00817C12.2864 9.21272 12.1872 9.27399 12.1641 9.27399C12.1407 9.27399 12.0921 9.22388 12.0219 9.12767C11.8867 8.94242 11.7487 8.85787 11.5353 8.82967C11.3059 8.79929 11.1 8.87161 10.9992 9.01811C10.9131 9.14327 10.9001 9.3447 10.9686 9.49104C11.0479 9.66056 11.1915 9.75428 11.7419 9.99562C12.3766 10.2739 12.6983 10.4644 12.9326 10.7009C13.1848 10.9555 13.3126 11.2494 13.3519 11.6652C13.3711 11.8679 13.3477 12.1081 13.2897 12.3034C13.1474 12.7822 12.7636 13.1327 12.201 13.2977C12.0455 13.3433 11.9008 13.3706 11.7577 13.381C11.5392 13.3971 11.2264 13.3883 11.0381 13.3609C10.5618 13.2915 10.0242 13.0143 9.75606 12.7001C9.62445 12.5458 9.45644 12.2919 9.45644 12.2473C9.45644 12.2257 9.46712 12.2135 9.50943 12.1866C9.63492 12.1068 10.354 11.6957 10.368 11.6957C10.3764 11.6957 10.414 11.74 10.4514 11.7941C10.5363 11.9166 10.7449 12.1271 10.8509 12.1974C10.9376 12.2548 11.0483 12.3008 11.1798 12.3341C11.2552 12.3529 11.2951 12.3562 11.4594 12.3562C11.6273 12.3561 11.6618 12.3533 11.7369 12.3331C11.9356 12.2797 12.0907 12.169 12.1565 12.0338C12.1853 11.9754 12.1858 11.9681 12.1858 11.8264V11.6796L12.1505 11.6095C12.065 11.4397 11.8806 11.3232 11.2979 11.0708C11.0302 10.9548 10.7023 10.7913 10.5743 10.71C10.2822 10.5243 10.0798 10.3121 9.94691 10.0523C9.81475 9.79399 9.79504 9.69783 9.79472 9.30939C9.7944 9.00531 9.79389 9.00904 9.85685 8.81495C9.91397 8.63883 10.0309 8.44209 10.16 8.30491C10.4176 8.03104 10.794 7.85505 11.197 7.82004C11.2485 7.81516 11.3175 7.81326 11.3927 7.81348L11.3927 7.81343ZM7.92517 7.87349H7.92529C8.70139 7.87388 9.14628 7.87657 9.15342 7.88105C9.16687 7.88938 9.16854 7.95692 9.16854 8.388V8.88531L8.39411 8.88812L7.61968 8.89093V11.0897C7.61968 12.2991 7.61723 13.2958 7.61387 13.3046C7.60839 13.3194 7.54883 13.3205 7.04494 13.3205H6.48212L6.47631 13.2978C6.47255 13.2853 6.46981 12.2886 6.46975 11.0829L6.46956 8.89081L5.69513 8.88806L4.9207 8.88525V8.39382C4.9207 8.00406 4.92339 7.89968 4.93376 7.88931C4.94442 7.87832 5.33965 7.87549 7.04262 7.87381C7.37098 7.87348 7.66645 7.87333 7.92517 7.87349Z" fill="#0288D1"/>
  </symbol>
  <symbol id="lang-html" viewBox="0 0 16 16" fill="none" xmlns="http://www.w3.org/2000/svg">
    <path d="M11.631 5.1L11.767 3.569H4.233L4.633 8.241H9.849L9.662 10.241L7.983 10.7L6.313 10.236L6.2 9.015H4.71L4.9 11.448L7.985 12.323H8.017V12.314L11.077 11.448L11.5 6.688H6.014L5.886 5.1H11.631ZM2 1H14L12.909 13.583L7.983 15L3.091 13.583L2 1Z" fill="#F24A45"/>
  </symbol>
  <symbol id="lang-css" viewBox="0 0 16 16" fill="none" xmlns="http://www.w3.org/2000/svg">
    <path d="M3.785 2H14L12.195 11.164L6.738 13L2 11.164L2.482 8.717H4.5L4.3 9.728L7.164 10.835L10.464 9.728L10.925 7.4H2.725L3.12 5.355H11.326L11.584 4.042H3.384L3.785 2Z" fill="#1E9CEF"/>
  </symbol>
  <symbol id="lang-react" viewBox="0 0 16 16" fill="none" xmlns="http://www.w3.org/2000/svg">
    <g clip-path="url(#clip0_1_3559)">
    <path d="M9.39696 7.9633C9.39696 6.86819 8.21115 6.18003 7.26762 6.72758C6.32409 7.27514 6.32409 8.65146 7.26762 9.19902C8.21115 9.74657 9.39696 9.05841 9.39696 7.9633ZM12.6473 5.33298C13.5867 0.84266 11.52 -0.566437 8.00665 2.68388C4.69997 -0.416133 2.34521 0.560841 3.34723 5.3142C-1.27343 6.70717 -0.96729 9.32937 3.38481 10.6688C2.38905 15.0464 4.24906 16.6433 8.00665 13.3367C11.6515 16.6058 13.5859 15.0752 12.5909 10.65C17.338 9.04047 16.9121 6.71077 12.6473 5.33298ZM12.0085 5.16389C11.2638 4.99591 10.5432 4.87363 9.81029 4.80692C9.42416 4.24231 8.97441 3.67832 8.45756 3.15358C11.2744 0.451693 12.9345 1.29593 12.0085 5.16389ZM4.73754 8.82755C5.01623 9.4225 5.3826 9.96735 5.65815 10.4245C5.20945 10.3786 4.72605 10.3089 4.21148 10.2179C4.37636 9.75632 4.5519 9.29285 4.73754 8.82755ZM4.69997 7.21178C4.49498 6.71973 4.30793 6.24483 4.15512 5.80268C4.68632 5.69257 5.20687 5.5926 5.65815 5.55844C5.32228 6.08607 5.00326 6.63771 4.69997 7.21178ZM5.09451 8.03845C5.55395 7.11834 6.03995 6.24496 6.57876 5.4645C7.53483 5.40952 8.48072 5.41439 9.41575 5.48329C9.94016 6.214 10.4296 7.08735 10.9 8.03845C10.548 8.76586 10.0482 9.60418 9.47211 10.4997C8.51033 10.5725 7.52412 10.5624 6.5224 10.4997C6.01469 9.72186 5.53788 8.9026 5.09451 8.03845ZM11.257 8.82755C11.4394 9.27025 11.608 9.72146 11.7642 10.1803C11.282 10.2818 10.8063 10.3558 10.3364 10.4057C10.6581 9.90731 10.9632 9.37809 11.257 8.82755ZM10.3364 5.55844C10.8486 5.62857 11.3435 5.71614 11.8206 5.82147C11.661 6.29579 11.4796 6.75935 11.2758 7.21178C10.9849 6.63821 10.6727 6.08619 10.3364 5.55844ZM8.88968 4.73177C8.30454 4.70881 7.70927 4.70955 7.10483 4.73177C7.36944 4.38375 7.66438 4.02021 7.98786 3.64207C8.30311 3.98235 8.60178 4.34861 8.88968 4.73177ZM7.53695 3.15358C7.0201 3.67832 6.57035 4.22352 6.18422 4.78813C5.45133 4.85485 4.71195 4.97712 3.96724 5.1451C3.0842 1.21842 4.72014 0.451693 7.53695 3.15358ZM3.5539 10.0488C-0.360259 8.87138 -0.172379 7.03643 3.51633 5.95299C3.74197 6.6377 4.01514 7.3331 4.32421 8.00088C4.02388 8.69148 3.75801 9.40079 3.5539 10.0488ZM4.04239 10.8379C4.70623 11.0007 5.40972 11.0789 6.14664 11.1573C6.59004 11.783 7.04922 12.3648 7.53695 12.867C4.66865 15.6163 3.06967 14.6174 4.04239 10.8379ZM7.98786 12.3973C7.64797 12.0453 7.33063 11.6465 7.02968 11.2136C7.70052 11.2278 8.34843 11.2293 8.96484 11.2136C8.66631 11.6371 8.34028 12.0313 7.98786 12.3973ZM8.45756 12.867C8.98089 12.2984 9.44224 11.7219 9.84787 11.1385C10.5402 11.0875 11.2416 10.9812 11.9521 10.8191C12.9336 14.842 11.1515 15.436 8.45756 12.867ZM12.4218 10.0112C12.2206 9.36321 11.9664 8.69148 11.6703 8.00088C11.975 7.3331 12.2369 6.65649 12.4594 5.97178C16.0604 7.06148 16.3485 8.8025 12.4218 10.0112Z" fill="#26A2C1"/>
    </g>
    <defs>
      <clipPath id="clip0_1_3559">
        <rect width="16" height="16" fill="white"/>
      </clipPath>
    </defs>
  </symbol>
  <symbol id="lang-vue" viewBox="0 0 16 16" fill="none" xmlns="http://www.w3.org/2000/svg">
    <path d="M15 2L8 14L1 2H2.138L8 12.05L13.863 2H15ZM8 4.729L6.382 2H3.927L8 8.982L12.073 2H9.618L8 4.729Z" fill="#41B883"/>
  </symbol>
  <symbol id="lang-git" viewBox="0 0 16 16" fill="none" xmlns="http://www.w3.org/2000/svg">
  <path d="M14.718 7.35598L8.6 1.24098C8.51637 1.15693 8.41696 1.09023 8.30747 1.04471C8.19798 0.999199 8.08058 0.975769 7.962 0.975769C7.84343 0.975769 7.72603 0.999199 7.61654 1.04471C7.50705 1.09023 7.40763 1.15693 7.324 1.24098L6.054 2.51098L7.668 4.12198C7.8579 4.05732 8.06214 4.0473 8.25745 4.09304C8.45277 4.13879 8.63131 4.23848 8.77274 4.38074C8.91417 4.523 9.0128 4.70213 9.0574 4.89771C9.102 5.09329 9.09078 5.29747 9.025 5.48698L10.577 7.03998C10.8088 6.96043 11.0609 6.96273 11.2913 7.04648C11.5216 7.13024 11.7163 7.2904 11.8429 7.50027C11.9695 7.71014 12.0203 7.95706 11.9869 8.19987C11.9536 8.44268 11.838 8.66673 11.6595 8.83469C11.481 9.00264 11.2504 9.10436 11.006 9.12288C10.7616 9.14141 10.5182 9.07563 10.3164 8.93651C10.1146 8.79738 9.96663 8.59332 9.89704 8.35831C9.82745 8.1233 9.8405 7.87154 9.934 7.64498L8.487 6.19998V10.01C8.70544 10.12 8.87962 10.3016 8.98058 10.5244C9.08154 10.7472 9.1032 10.9978 9.04195 11.2346C8.98071 11.4714 8.84024 11.6801 8.64392 11.826C8.4476 11.9719 8.20726 12.0462 7.96285 12.0366C7.71843 12.0269 7.48469 11.9339 7.30048 11.773C7.11626 11.6121 6.99268 11.393 6.95028 11.1521C6.90789 10.9112 6.94923 10.663 7.06743 10.4489C7.18563 10.2347 7.37357 10.0675 7.6 9.97498V6.12998C7.46909 6.07619 7.3501 5.99706 7.24987 5.89713C7.14965 5.7972 7.07016 5.67844 7.01598 5.54769C6.9618 5.41694 6.934 5.27677 6.93418 5.13523C6.93435 4.9937 6.9625 4.8536 7.017 4.72298L5.434 3.13498L1.241 7.32698C1.15695 7.41061 1.09025 7.51003 1.04474 7.61952C0.999222 7.72901 0.975792 7.84641 0.975792 7.96498C0.975792 8.08355 0.999222 8.20096 1.04474 8.31044C1.09025 8.41993 1.15695 8.51935 1.241 8.60298L7.356 14.718C7.43963 14.802 7.53905 14.8687 7.64854 14.9142C7.75803 14.9598 7.87543 14.9832 7.994 14.9832C8.11258 14.9832 8.22998 14.9598 8.33947 14.9142C8.44896 14.8687 8.54837 14.802 8.632 14.718L14.718 8.63198C14.8021 8.54835 14.8688 8.44893 14.9143 8.33945C14.9598 8.22996 14.9832 8.11255 14.9832 7.99398C14.9832 7.87541 14.9598 7.75801 14.9143 7.64852C14.8688 7.53903 14.8021 7.43961 14.718 7.35598Z" fill="#D52A29"/>
  </symbol>
  <symbol id="check" viewBox="0 0 24 24" fill="none" stroke="currentColor" stroke-width="2" stroke-linecap="round" stroke-linejoin="round" xmlns="http://www.w3.org/2000/svg">
    <path d="M20 6 9 17l-5-5"/>
  </symbol>
</svg>